<svg id="doc" xmlns="http://www.w3.org/2000/svg" viewBox="0 0 28.411 37">
  <defs>
    <style>
      .cls-1 {
        fill: #e9e9e0;
      }

      .cls-2 {
        fill: #d9d7ca;
      }

      .cls-3 {
        fill: #8697cb;
      }

      .cls-4 {
        fill: #0096e6;
      }

      .cls-5 {
        fill: #fff;
      }
    </style>
  </defs>
  <path id="Path_956" data-name="Path 956" class="cls-1" d="M26.642,0H7.467C6.933,0,6.5.433,6.5,1.273V36.339A1,1,0,0,0,7.467,37H33.944a1,1,0,0,0,.967-.661V8.575c0-.46-.061-.608-.17-.717L27.053.17A.584.584,0,0,0,26.642,0Z" transform="translate(-6.5)"/>
  <path id="Path_957" data-name="Path 957" class="cls-2" d="M37.5.151V7.98h7.829Z" transform="translate(-17.018 -0.051)"/>
  <path id="Path_958" data-name="Path 958" class="cls-3" d="M16.125,12.321H12.161a.661.661,0,1,1,0-1.321h3.964a.661.661,0,1,1,0,1.321Z" transform="translate(-8.196 -3.732)"/>
  <path id="Path_959" data-name="Path 959" class="cls-3" d="M18.107,17.321H12.161a.661.661,0,1,1,0-1.321h5.946a.661.661,0,1,1,0,1.321Z" transform="translate(-8.196 -5.429)"/>
  <path id="Path_960" data-name="Path 960" class="cls-3" d="M25.161,17.326a.654.654,0,1,1,.469-.192A.695.695,0,0,1,25.161,17.326Z" transform="translate(-12.607 -5.433)"/>
  <path id="Path_961" data-name="Path 961" class="cls-3" d="M34.446,17.321H29.161a.661.661,0,1,1,0-1.321h5.286a.661.661,0,1,1,0,1.321Z" transform="translate(-13.964 -5.429)"/>
  <path id="Path_962" data-name="Path 962" class="cls-3" d="M12.161,32.326a.662.662,0,1,1,.469-1.13.682.682,0,0,1,.192.469.654.654,0,0,1-.661.661Z" transform="translate(-8.196 -10.522)"/>
  <path id="Path_963" data-name="Path 963" class="cls-3" d="M21.446,32.321H16.161a.661.661,0,1,1,0-1.321h5.286a.661.661,0,1,1,0,1.321Z" transform="translate(-9.554 -10.518)"/>
  <path id="Path_964" data-name="Path 964" class="cls-3" d="M42.482,17.321H41.161a.661.661,0,1,1,0-1.321h1.321a.661.661,0,1,1,0,1.321Z" transform="translate(-18.036 -5.429)"/>
  <path id="Path_965" data-name="Path 965" class="cls-3" d="M26.7,22.321H12.161a.661.661,0,1,1,0-1.321H26.7a.661.661,0,1,1,0,1.321Z" transform="translate(-8.196 -7.125)"/>
  <path id="Path_966" data-name="Path 966" class="cls-3" d="M41.125,22.321H37.161a.661.661,0,1,1,0-1.321h3.964a.661.661,0,0,1,0,1.321Z" transform="translate(-16.679 -7.125)"/>
  <path id="Path_967" data-name="Path 967" class="cls-3" d="M14.8,27.321H12.161a.661.661,0,1,1,0-1.321H14.8a.661.661,0,1,1,0,1.321Z" transform="translate(-8.196 -8.821)"/>
  <path id="Path_968" data-name="Path 968" class="cls-3" d="M26.768,27.321H20.161a.661.661,0,0,1,0-1.321h6.607a.661.661,0,0,1,0,1.321Z" transform="translate(-10.911 -8.821)"/>
  <path id="Path_969" data-name="Path 969" class="cls-3" d="M40.107,27.321H34.161a.661.661,0,0,1,0-1.321h5.946a.661.661,0,1,1,0,1.321Z" transform="translate(-15.661 -8.821)"/>
  <path id="Path_970" data-name="Path 970" class="cls-4" d="M33.944,50.232H7.467a.967.967,0,0,1-.967-.967V39H34.911V49.266A.967.967,0,0,1,33.944,50.232Z" transform="translate(-6.5 -13.232)"/>
  <g id="Group_2182" data-name="Group 2182" transform="translate(5.858 28.252)">
    <path id="Path_971" data-name="Path 971" class="cls-5" d="M20.74,46.068a4.891,4.891,0,0,1-.176,1.4,3.492,3.492,0,0,1-.447.976,2.3,2.3,0,0,1-.61.619,3.059,3.059,0,0,1-.655.339,2.705,2.705,0,0,1-.578.145,3.855,3.855,0,0,1-.388.03h-2.52V42.924h2a3.81,3.81,0,0,1,1.477.266A3.066,3.066,0,0,1,19.9,43.9a2.91,2.91,0,0,1,.628,1.007A3.335,3.335,0,0,1,20.74,46.068Zm-3.216,2.719a1.8,1.8,0,0,0,1.59-.7,3.576,3.576,0,0,0,.488-2.042,3.458,3.458,0,0,0-.1-.822,1.758,1.758,0,0,0-.384-.736,2.026,2.026,0,0,0-.772-.533,3.326,3.326,0,0,0-1.265-.2H16.45v5.041h1.075Z" transform="translate(-15.366 -42.816)"/>
    <path id="Path_972" data-name="Path 972" class="cls-5" d="M30.627,46.165a4.716,4.716,0,0,1-.212,1.481,3.021,3.021,0,0,1-.587,1.066,2.458,2.458,0,0,1-.876.642,2.887,2.887,0,0,1-2.195,0,2.458,2.458,0,0,1-.876-.642,3.027,3.027,0,0,1-.587-1.066,5.263,5.263,0,0,1,0-2.958,3.012,3.012,0,0,1,.587-1.061,2.511,2.511,0,0,1,.876-.646,2.831,2.831,0,0,1,2.195,0,2.511,2.511,0,0,1,.876.646,3.044,3.044,0,0,1,.587,1.061A4.69,4.69,0,0,1,30.627,46.165Zm-2.8,2.521a1.59,1.59,0,0,0,.637-.131A1.424,1.424,0,0,0,29,48.126a2.171,2.171,0,0,0,.375-.782,4.7,4.7,0,0,0,.145-1.179,4.608,4.608,0,0,0-.14-1.152,2.312,2.312,0,0,0-.361-.782,1.392,1.392,0,0,0-.524-.443,1.456,1.456,0,0,0-.619-.135,1.63,1.63,0,0,0-.637.126,1.364,1.364,0,0,0-.542.429,2.209,2.209,0,0,0-.375.782,4.61,4.61,0,0,0-.145,1.174,4.668,4.668,0,0,0,.14,1.156,2.265,2.265,0,0,0,.361.782,1.449,1.449,0,0,0,.524.443A1.426,1.426,0,0,0,27.826,48.686Z" transform="translate(-18.662 -42.76)"/>
    <path id="Path_973" data-name="Path 973" class="cls-5" d="M40.232,48.848a2.464,2.464,0,0,1-.84.542,2.783,2.783,0,0,1-1.012.18,2.732,2.732,0,0,1-1.1-.217,2.458,2.458,0,0,1-.876-.642,3.027,3.027,0,0,1-.587-1.066,5.263,5.263,0,0,1,0-2.958,3.012,3.012,0,0,1,.587-1.061,2.5,2.5,0,0,1,.881-.646,2.688,2.688,0,0,1,1.093-.221,2.8,2.8,0,0,1,1.012.18,2.468,2.468,0,0,1,.84.542l-.75.669a1.369,1.369,0,0,0-.5-.379,1.453,1.453,0,0,0-.573-.118,1.63,1.63,0,0,0-.637.126,1.364,1.364,0,0,0-.542.429,2.209,2.209,0,0,0-.375.782,4.61,4.61,0,0,0-.145,1.174,4.668,4.668,0,0,0,.14,1.156,2.264,2.264,0,0,0,.361.782,1.449,1.449,0,0,0,.524.443,1.412,1.412,0,0,0,.619.14,1.587,1.587,0,0,0,.61-.118,1.432,1.432,0,0,0,.519-.379Z" transform="translate(-22.234 -42.76)"/>
  </g>
</svg>
