<svg xmlns="http://www.w3.org/2000/svg" viewBox="0 0 16.354 18.58">
  <defs>
    <style>
      .cls-1 {
        fill: #0d1135;
        opacity: 0.5;
      }
    </style>
  </defs>
  <g id="user_1_" data-name="user (1)" transform="translate(-30.66)">
    <g id="Group_2295" data-name="Group 2295" transform="translate(30.66)">
      <g id="Group_2294" data-name="Group 2294" transform="translate(0)">
        <path id="Path_4238" data-name="Path 4238" class="cls-1" d="M44.45,14.783l2.564-2.568-1.522-1.522L42.41,13.775l-.2-.064a9.234,9.234,0,0,1-1.58-1.021v-.95a4.765,4.765,0,0,0,2.257-3.394,1.7,1.7,0,0,0,1.263-1.4c0-.589-.442-.98-1.173-1.061V5.188A5.92,5.92,0,0,0,41.6,1.239,4.272,4.272,0,0,0,38.385,0a4.275,4.275,0,0,0-3.223,1.242,5.908,5.908,0,0,0-1.373,3.947v.694c-.731.081-1.173.472-1.173,1.061a1.7,1.7,0,0,0,1.263,1.4,4.765,4.765,0,0,0,2.257,3.394v.95a9.254,9.254,0,0,1-1.581,1.021c-3.813,1.237-3.894,3.5-3.9,3.592V18.58H46.111V17.306A3.416,3.416,0,0,0,44.45,14.783Zm1.042-3.259.691.692-2.389,2.393-1.5,1.5-1.036.344.344-1.036Zm-9.9-9.878a3.713,3.713,0,0,1,2.8-1.058,3.709,3.709,0,0,1,2.791,1.056,5.191,5.191,0,0,1,1.213,3.239,11.534,11.534,0,0,1-4.828-1.514l-.2-.122-.164.164a5.527,5.527,0,0,1-2.824,1.637A5.293,5.293,0,0,1,35.589,1.646Zm-1.16,6.415L34.4,7.84l-.221-.03c-.425-.058-.974-.488-.974-.867,0-.453.673-.488.88-.488h.294V5.645a5.838,5.838,0,0,0,3.076-1.661,11.78,11.78,0,0,0,4.941,1.486v.984h.294c.206,0,.88.035.88.488,0,.378-.549.809-.974.867l-.221.03-.031.221a4.2,4.2,0,0,1-2.136,3.245,3.921,3.921,0,0,1-1.821.429,3.877,3.877,0,0,1-1.82-.428A4.2,4.2,0,0,1,34.429,8.061Zm2.295,3.961a4.738,4.738,0,0,0,3.324,0V12.7a2.13,2.13,0,0,1-3.324,0Zm8.8,5.971H31.248v-.679a2.278,2.278,0,0,1,.453-1.1,6.042,6.042,0,0,1,3.059-1.955l.024-.008.022-.012a10.9,10.9,0,0,0,1.614-1.021,2.679,2.679,0,0,0,3.931,0,10.8,10.8,0,0,0,1.6,1.013l-.864.864-.759,2.281,2.281-.759,1.421-1.417a2.929,2.929,0,0,1,1.495,2.106Z" transform="translate(-30.66)"/>
        <rect id="Rectangle_3560" data-name="Rectangle 3560" class="cls-1" width="2.933" height="0.588" transform="translate(5.965 15.45)"/>
        <rect id="Rectangle_3561" data-name="Rectangle 3561" class="cls-1" width="3.911" height="0.588" transform="translate(4.988 16.623)"/>
        <rect id="Rectangle_3562" data-name="Rectangle 3562" class="cls-1" width="0.782" height="0.588" transform="translate(3.619 16.623)"/>
      </g>
    </g>
  </g>
</svg>
