<svg xmlns="http://www.w3.org/2000/svg" viewBox="0 0 17.27 22.047">
  <defs>
    <style>
      .cls-1 {
        opacity: 0.5;
      }

      .cls-2 {
        fill: #0d1135;
      }
    </style>
  </defs>
  <g id="file_2_" data-name="file (2)" class="cls-1" transform="translate(-6.5)">
    <path id="Path_4232" data-name="Path 4232" class="cls-2" d="M26.054,22H16.867a.367.367,0,0,0,0,.735h9.186a.367.367,0,0,0,0-.735Z" transform="translate(-6.325 -13.916)"/>
    <path id="Path_4233" data-name="Path 4233" class="cls-2" d="M16.867,14.735h3.675a.367.367,0,0,0,0-.735H16.867a.367.367,0,1,0,0,.735Z" transform="translate(-6.325 -8.856)"/>
    <path id="Path_4234" data-name="Path 4234" class="cls-2" d="M26.054,30H16.867a.367.367,0,0,0,0,.735h9.186a.367.367,0,0,0,0-.735Z" transform="translate(-6.325 -18.976)"/>
    <path id="Path_4235" data-name="Path 4235" class="cls-2" d="M26.054,38H16.867a.367.367,0,1,0,0,.735h9.186a.367.367,0,0,0,0-.735Z" transform="translate(-6.325 -24.037)"/>
    <path id="Path_4236" data-name="Path 4236" class="cls-2" d="M26.054,46H16.867a.367.367,0,1,0,0,.735h9.186a.367.367,0,1,0,0-.735Z" transform="translate(-6.325 -29.097)"/>
    <path id="Path_4237" data-name="Path 4237" class="cls-2" d="M18.411,0H6.5V22.047H23.77V5.36Zm.215,1.254,3.89,3.89h-3.89ZM7.235,21.312V.735H17.891V5.879h5.144V21.312Z"/>
  </g>
</svg>
