<svg id="jpg" xmlns="http://www.w3.org/2000/svg" viewBox="0 0 28.411 37">
  <defs>
    <style>
      .cls-1 {
        fill: #e9e9e0;
      }

      .cls-2 {
        fill: #d9d7ca;
      }

      .cls-3 {
        fill: #f3d55b;
      }

      .cls-4 {
        fill: #26b99a;
      }

      .cls-5 {
        fill: #14a085;
      }

      .cls-6 {
        fill: #fff;
      }
    </style>
  </defs>
  <path id="Path_942" data-name="Path 942" class="cls-1" d="M26.642,0H7.467C6.933,0,6.5.433,6.5,1.273V36.339A1,1,0,0,0,7.467,37H33.944a1,1,0,0,0,.967-.661V8.575c0-.46-.061-.608-.17-.717L27.053.17A.584.584,0,0,0,26.642,0Z" transform="translate(-6.5)"/>
  <path id="Path_943" data-name="Path 943" class="cls-2" d="M37.5.151V7.98h7.829Z" transform="translate(-17.018 -0.051)"/>
  <ellipse id="Ellipse_118" data-name="Ellipse 118" class="cls-3" cx="3.019" cy="3.019" rx="3.019" ry="3.019" transform="translate(5.195 6.516)"/>
  <path id="Path_944" data-name="Path 944" class="cls-4" d="M6.5,32.045H34.911V24.777L28.3,18.5l-6.938,7.6-3.623-3.623Z" transform="translate(-6.5 -6.277)"/>
  <path id="Path_945" data-name="Path 945" class="cls-5" d="M33.944,50.232H7.467a.967.967,0,0,1-.967-.967V39H34.911V49.266A.967.967,0,0,1,33.944,50.232Z" transform="translate(-6.5 -13.232)"/>
  <g id="Group_2180" data-name="Group 2180" transform="translate(5.788 28.179)">
    <path id="Path_946" data-name="Path 946" class="cls-6" d="M19.334,42.65v5.185a1.658,1.658,0,0,1-.172.79,1.415,1.415,0,0,1-.461.515,1.835,1.835,0,0,1-.664.271,3.819,3.819,0,0,1-.772.077,3.134,3.134,0,0,1-.465-.041,3.952,3.952,0,0,1-.551-.126q-.284-.086-.546-.194a2,2,0,0,1-.443-.244l.461-.731a1.349,1.349,0,0,0,.258.131q.166.067.366.126c.132.04.271.073.416.1a1.979,1.979,0,0,0,.406.045,1.388,1.388,0,0,0,.763-.185.731.731,0,0,0,.3-.628V42.65Z" transform="translate(-15.26 -42.65)"/>
    <path id="Path_947" data-name="Path 947" class="cls-6" d="M24.957,49.513H23.873V42.855h1.915a2.688,2.688,0,0,1,.84.135,2.284,2.284,0,0,1,.745.406,2.122,2.122,0,0,1,.533.655,1.814,1.814,0,0,1,.2.863,2.36,2.36,0,0,1-.172.917,1.917,1.917,0,0,1-.479.691,2.158,2.158,0,0,1-.741.433,2.85,2.85,0,0,1-.957.153h-.8v2.4Zm0-5.835v2.638h.994a1.181,1.181,0,0,0,.393-.068.99.99,0,0,0,.357-.221,1.082,1.082,0,0,0,.262-.429,2.031,2.031,0,0,0,.1-.682,1.844,1.844,0,0,0-.045-.375,1.082,1.082,0,0,0-.185-.406,1.1,1.1,0,0,0-.393-.325,1.453,1.453,0,0,0-.669-.131Z" transform="translate(-18.182 -42.72)"/>
    <path id="Path_948" data-name="Path 948" class="cls-6" d="M36.949,46.025V48.6a1.945,1.945,0,0,1-.465.429,2.844,2.844,0,0,1-.542.276,2.8,2.8,0,0,1-.587.153,3.862,3.862,0,0,1-.6.046,2.732,2.732,0,0,1-1.1-.217,2.458,2.458,0,0,1-.876-.642,3.027,3.027,0,0,1-.587-1.066,5.263,5.263,0,0,1,0-2.958,3.012,3.012,0,0,1,.587-1.061,2.5,2.5,0,0,1,.881-.646,2.688,2.688,0,0,1,1.093-.221,2.8,2.8,0,0,1,1.012.18,2.468,2.468,0,0,1,.84.542l-.75.669a1.289,1.289,0,0,0-.5-.379,1.488,1.488,0,0,0-.578-.118,1.63,1.63,0,0,0-.637.126,1.364,1.364,0,0,0-.542.429,2.209,2.209,0,0,0-.375.782,4.61,4.61,0,0,0-.145,1.174,4.9,4.9,0,0,0,.14,1.174,2.41,2.41,0,0,0,.361.813,1.539,1.539,0,0,0,.524.47,1.315,1.315,0,0,0,.619.153c.066,0,.155,0,.266-.014a3.243,3.243,0,0,0,.334-.045,2.174,2.174,0,0,0,.32-.086.459.459,0,0,0,.226-.153V46.765H34.745v-.741h2.2Z" transform="translate(-20.933 -42.664)"/>
  </g>
</svg>
