<svg id="pdf" xmlns="http://www.w3.org/2000/svg" viewBox="0 0 28.411 37">
  <defs>
    <style>
      .cls-1 {
        fill: #e9e9e0;
      }

      .cls-2 {
        fill: #d9d7ca;
      }

      .cls-3 {
        fill: #cc4b4c;
      }

      .cls-4 {
        fill: #fff;
      }
    </style>
  </defs>
  <path id="Path_974" data-name="Path 974" class="cls-1" d="M26.642,0H7.467C6.933,0,6.5.433,6.5,1.273V36.339A1,1,0,0,0,7.467,37H33.944a1,1,0,0,0,.967-.661V8.575c0-.46-.061-.608-.17-.717L27.053.17A.584.584,0,0,0,26.642,0Z" transform="translate(-6.5)"/>
  <path id="Path_975" data-name="Path 975" class="cls-2" d="M37.5.151V7.98h7.829Z" transform="translate(-17.018 -0.051)"/>
  <path id="Path_976" data-name="Path 976" class="cls-3" d="M18.8,24.361h0a1.061,1.061,0,0,1-.639-.215,1.583,1.583,0,0,1-.737-1.481c.12-1.076,1.45-2.2,3.954-3.348a44.352,44.352,0,0,0,2.5-7.1c-.659-1.435-1.3-3.3-.833-4.389a1.267,1.267,0,0,1,.749-.8,3.244,3.244,0,0,1,.671-.114c.333,0,.626.429.833.693.195.248.637.775-.246,4.494a21.113,21.113,0,0,0,3.362,5,12.854,12.854,0,0,1,2.219-.237c1.035,0,1.662.241,1.917.738A1.337,1.337,0,0,1,32.3,19.02a1.756,1.756,0,0,1-1.467.787A4.392,4.392,0,0,1,28.05,18.3a31.658,31.658,0,0,0-5.833,1.865,18.747,18.747,0,0,1-1.574,2.809C19.965,23.919,19.381,24.361,18.8,24.361Zm1.759-3.387c-1.412.794-1.987,1.446-2.029,1.813-.007.061-.024.221.285.457C18.916,23.214,19.491,22.951,20.562,20.975Zm9.01-2.935c.538.414.67.624,1.022.624a1,1,0,0,0,.8-.291,1.046,1.046,0,0,0,.152-.274c-.081-.043-.189-.13-.776-.13A9.66,9.66,0,0,0,29.572,18.04Zm-4.936-4.349a47.1,47.1,0,0,1-1.767,5,33.013,33.013,0,0,1,4.292-1.335A22.616,22.616,0,0,1,24.636,13.691Zm-.4-5.591a1.585,1.585,0,0,0,.063,2.125C24.926,8.827,24.264,8.091,24.235,8.1Z" transform="translate(-10.204 -2.344)"/>
  <path id="Path_977" data-name="Path 977" class="cls-3" d="M33.944,50.232H7.467a.967.967,0,0,1-.967-.967V39H34.911V49.266A.967.967,0,0,1,33.944,50.232Z" transform="translate(-6.5 -13.232)"/>
  <g id="Group_2183" data-name="Group 2183" transform="translate(6.108 28.36)">
    <path id="Path_978" data-name="Path 978" class="cls-4" d="M16.828,49.581H15.744V42.924h1.915a2.687,2.687,0,0,1,.84.135,2.284,2.284,0,0,1,.745.406,2.122,2.122,0,0,1,.533.655,1.814,1.814,0,0,1,.2.863,2.36,2.36,0,0,1-.172.917,1.917,1.917,0,0,1-.479.691,2.158,2.158,0,0,1-.741.433,2.85,2.85,0,0,1-.957.153h-.8v2.4Zm0-5.835v2.638h.994a1.181,1.181,0,0,0,.393-.068.99.99,0,0,0,.357-.221,1.082,1.082,0,0,0,.262-.429,2.031,2.031,0,0,0,.1-.682,1.845,1.845,0,0,0-.045-.375A1.082,1.082,0,0,0,18.7,44.2a1.1,1.1,0,0,0-.393-.325,1.46,1.46,0,0,0-.669-.131h-.813Z" transform="translate(-15.744 -42.924)"/>
    <path id="Path_979" data-name="Path 979" class="cls-4" d="M29.459,46.068a4.891,4.891,0,0,1-.176,1.4,3.492,3.492,0,0,1-.447.976,2.3,2.3,0,0,1-.61.619,3.059,3.059,0,0,1-.655.339,2.705,2.705,0,0,1-.578.145,3.851,3.851,0,0,1-.389.03h-2.52V42.924h2.005a3.81,3.81,0,0,1,1.477.266,3.066,3.066,0,0,1,1.057.709,2.91,2.91,0,0,1,.628,1.007A3.335,3.335,0,0,1,29.459,46.068Zm-3.216,2.719a1.8,1.8,0,0,0,1.59-.7,3.576,3.576,0,0,0,.488-2.042,3.458,3.458,0,0,0-.1-.822,1.758,1.758,0,0,0-.384-.736,2.026,2.026,0,0,0-.772-.533,3.326,3.326,0,0,0-1.265-.2h-.632v5.041h1.075Z" transform="translate(-18.574 -42.924)"/>
    <path id="Path_980" data-name="Path 980" class="cls-4" d="M35.7,43.746v2.1h2.782v.741H35.7v3H34.6V42.924h4.164v.822Z" transform="translate(-22.141 -42.924)"/>
  </g>
</svg>
