<svg xmlns="http://www.w3.org/2000/svg" viewBox="0 0 20.662 19.123">
  <defs>
    <style>
      .cls-1 {
        fill: #636363;
      }
    </style>
  </defs>
  <path id="sent-mail" class="cls-1" d="M20.556,12.535a.309.309,0,0,0-.334-.048L.178,21.8a.309.309,0,0,0-.006.557l5.672,2.784a.309.309,0,0,0,.321-.03l5.515-4.122-4.33,4.454a.309.309,0,0,0-.086.239L7.7,31.3a.309.309,0,0,0,.542.178l3.011-3.489,3.722,1.778a.309.309,0,0,0,.428-.186l5.249-16.718A.309.309,0,0,0,20.556,12.535Z" transform="translate(0.001 -12.458)"/>
</svg>
