<svg xmlns="http://www.w3.org/2000/svg" viewBox="0 0 31.965 24.161">
  <defs>
    <style>
      .cls-1 {
        opacity: 0.5;
      }

      .cls-2 {
        fill: #0d1135;
      }
    </style>
  </defs>
  <g id="toolbox" class="cls-1" transform="translate(0 -62.5)">
    <g id="Group_2869" data-name="Group 2869" transform="translate(0 62.5)">
      <g id="Group_2868" data-name="Group 2868" transform="translate(0 0)">
        <path id="Path_4311" data-name="Path 4311" class="cls-2" d="M31.5,72.8H31.34V69.524A2.344,2.344,0,0,0,29,67.182h-1.4v-.156a.468.468,0,0,0-.468-.468H23.381a.468.468,0,0,0-.468.468v.156H21.273V62.968a.468.468,0,0,0-.468-.468H11.441a.468.468,0,0,0-.468.468v4.214H9.053v-.156a.468.468,0,0,0-.468-.468H4.838a.468.468,0,0,0-.468.468v.156h-1.4A2.344,2.344,0,0,0,.624,69.524V72.8H.468a.468.468,0,1,0,0,.936H.624V84.32a2.344,2.344,0,0,0,2.341,2.341H29A2.344,2.344,0,0,0,31.34,84.32V73.738H31.5a.468.468,0,1,0,0-.936Zm-7.648-5.307h2.809v.936H23.849Zm0,1.873h2.809V72.8H23.849Zm-11.94-5.931h8.428v.936H11.909Zm0,1.873h8.428v1.873H11.909ZM9.053,68.9v-.781h13.86V72.8H19.26V71.4a.468.468,0,0,0-.468-.468H13.173a.468.468,0,0,0-.468.468v1.4H9.053Zm4.589,3.9v-.936h4.682V72.8Zm4.682.936V78.42H13.641V73.738ZM5.307,67.494H8.116v.936H5.307Zm0,1.873H8.116V72.8H5.307Zm-3.746.156a1.406,1.406,0,0,1,1.4-1.4h1.4V72.8H1.561ZM30.4,84.32a1.406,1.406,0,0,1-1.4,1.4h-1.4V75.142a.468.468,0,0,0-.936,0V85.724H23.849V75.142a.468.468,0,0,0-.936,0V85.724H9.053V75.142a.468.468,0,0,0-.936,0V85.724H5.307V75.142a.468.468,0,0,0-.936,0V85.724h-1.4a1.406,1.406,0,0,1-1.4-1.4V73.738H12.7v5.151a.468.468,0,0,0,.468.468h5.619a.468.468,0,0,0,.468-.468V73.738H30.4Zm0-11.519H27.595V68.119H29a1.406,1.406,0,0,1,1.4,1.4Z" transform="translate(0 -62.5)"/>
      </g>
    </g>
    <g id="Group_2871" data-name="Group 2871" transform="translate(14.578 76.547)">
      <g id="Group_2870" data-name="Group 2870">
        <path id="Path_4312" data-name="Path 4312" d="M235.841,287.5h-1.873a.468.468,0,0,0,0,.936h1.873a.468.468,0,0,0,0-.936Z" transform="translate(-233.5 -287.5)"/>
      </g>
    </g>
  </g>
</svg>
