<svg xmlns="http://www.w3.org/2000/svg" viewBox="0 0 25.65 25.65">
  <defs>
    <style>
      .cls-1 {
        fill: #11a9cd;
      }
    </style>
  </defs>
  <g id="twitter-logo-button" transform="translate(0 0)">
    <g id="Group_7" data-name="Group 7">
      <path id="Path_11" data-name="Path 11" class="cls-1" d="M12.825,0A12.825,12.825,0,1,0,25.65,12.825,12.84,12.84,0,0,0,12.825,0Zm5.721,9.89c.006.127.009.255.009.383A8.4,8.4,0,0,1,5.631,17.345,5.96,5.96,0,0,0,10,16.123a2.955,2.955,0,0,1-2.758-2.05,2.963,2.963,0,0,0,1.333-.05,2.952,2.952,0,0,1-2.368-2.894c0-.012,0-.025,0-.037a2.94,2.94,0,0,0,1.336.369,2.956,2.956,0,0,1-.913-3.941A8.382,8.382,0,0,0,12.716,10.6a2.954,2.954,0,0,1,5.03-2.693,5.892,5.892,0,0,0,1.875-.717,2.965,2.965,0,0,1-1.3,1.633,5.869,5.869,0,0,0,1.7-.464A5.938,5.938,0,0,1,18.546,9.89Z"/>
    </g>
  </g>
</svg>
