<svg xmlns="http://www.w3.org/2000/svg" viewBox="0 0 26.2 24.282">
  <defs>
    <style>
      .cls-1 {
        fill: #95989a;
      }
    </style>
  </defs>
  <g id="upload" transform="translate(0 -17.25)">
    <g id="Group_2287" data-name="Group 2287" transform="translate(0 17.25)">
      <path id="Path_4226" data-name="Path 4226" class="cls-1" d="M25.449,228.261a.748.748,0,0,0-.751.751v6.828a3.368,3.368,0,0,1-3.364,3.364H4.865A3.368,3.368,0,0,1,1.5,235.84V228.9a.751.751,0,1,0-1.5,0v6.939a4.871,4.871,0,0,0,4.865,4.865h16.47A4.871,4.871,0,0,0,26.2,235.84v-6.828A.751.751,0,0,0,25.449,228.261Z" transform="translate(0 -216.423)"/>
      <path id="Path_4227" data-name="Path 4227" class="cls-1" d="M137.6,23.305l3.492-3.492v15.23a.751.751,0,0,0,1.5,0V19.813l3.492,3.492a.755.755,0,0,0,.528.222.723.723,0,0,0,.528-.222.748.748,0,0,0,0-1.062l-4.771-4.771a.76.76,0,0,0-.528-.222.727.727,0,0,0-.528.222l-4.771,4.771a.749.749,0,0,0,1.056,1.062Z" transform="translate(-128.745 -17.25)"/>
    </g>
  </g>
</svg>
