<svg id="xls" xmlns="http://www.w3.org/2000/svg" viewBox="0 0 28.411 37">
  <defs>
    <style>
      .cls-1 {
        fill: #e9e9e0;
      }

      .cls-2 {
        fill: #d9d7ca;
      }

      .cls-3 {
        fill: #91cda0;
      }

      .cls-4 {
        fill: #fff;
      }

      .cls-5 {
        fill: #c8bdb8;
      }
    </style>
  </defs>
  <path id="Path_949" data-name="Path 949" class="cls-1" d="M26.642,0H7.467C6.933,0,6.5.433,6.5,1.273V36.339A1,1,0,0,0,7.467,37H33.944a1,1,0,0,0,.967-.661V8.575c0-.46-.061-.608-.17-.717L27.053.17A.584.584,0,0,0,26.642,0Z" transform="translate(-6.5)"/>
  <path id="Path_950" data-name="Path 950" class="cls-2" d="M37.5.151V7.98h7.829Z" transform="translate(-17.018 -0.051)"/>
  <path id="Path_951" data-name="Path 951" class="cls-3" d="M33.944,50.232H7.467a.967.967,0,0,1-.967-.967V39H34.911V49.266A.967.967,0,0,1,33.944,50.232Z" transform="translate(-6.5 -13.232)"/>
  <g id="Group_2181" data-name="Group 2181" transform="translate(5.954 28.252)">
    <path id="Path_952" data-name="Path 952" class="cls-4" d="M18.728,46.347l1.689,3.234H19.162L18.1,47.07h-.091l-1.138,2.511H15.62l1.689-3.234-1.8-3.424H16.75l1.174,2.71h.091l1.274-2.71h1.238Z" transform="translate(-15.512 -42.815)"/>
    <path id="Path_953" data-name="Path 953" class="cls-4" d="M26.471,42.924v5.835h3.062v.822H25.369V42.924Z" transform="translate(-18.856 -42.816)"/>
    <path id="Path_954" data-name="Path 954" class="cls-4" d="M37.056,47.7a1.718,1.718,0,0,1-.149.7,1.842,1.842,0,0,1-.42.6,2,2,0,0,1-.669.411,2.492,2.492,0,0,1-.9.153c-.145,0-.293-.008-.447-.022A3.629,3.629,0,0,1,34,49.462a2.435,2.435,0,0,1-.447-.149,1.435,1.435,0,0,1-.366-.231l.19-.777a1.9,1.9,0,0,0,.32.14c.13.045.263.087.4.126a4.053,4.053,0,0,0,.416.1,2.3,2.3,0,0,0,.389.036,1.241,1.241,0,0,0,.844-.258.962.962,0,0,0,.293-.763.731.731,0,0,0-.207-.524,2.25,2.25,0,0,0-.519-.393q-.311-.176-.673-.352A4.079,4.079,0,0,1,33.965,46a2.168,2.168,0,0,1-.524-.564,1.479,1.479,0,0,1-.207-.813,1.815,1.815,0,0,1,.163-.786,1.758,1.758,0,0,1,.438-.583,1.939,1.939,0,0,1,.642-.366,2.341,2.341,0,0,1,.772-.126,4.738,4.738,0,0,1,.84.077,1.851,1.851,0,0,1,.686.248c-.036.078-.079.164-.126.258l-.135.262c-.042.081-.079.149-.108.2a.835.835,0,0,1-.054.091,1.09,1.09,0,0,1-.122-.072.935.935,0,0,0-.194-.091,1.386,1.386,0,0,0-.334-.063,3.159,3.159,0,0,0-.533.009.933.933,0,0,0-.344.1,1.189,1.189,0,0,0-.289.212.968.968,0,0,0-.2.285.727.727,0,0,0-.072.3.817.817,0,0,0,.207.583,2.013,2.013,0,0,0,.515.389q.307.167.669.325a3.646,3.646,0,0,1,.673.384,1.94,1.94,0,0,1,.519.564A1.631,1.631,0,0,1,37.056,47.7Z" transform="translate(-21.51 -42.76)"/>
  </g>
  <path id="Path_955" data-name="Path 955" class="cls-5" d="M19.429,14.643V12H11.5V26.536H33.3V14.643Zm-6.607-1.321h5.286v1.321H12.821Zm0,2.643h5.286v1.321H12.821Zm0,2.643h5.286v1.321H12.821Zm0,2.643h5.286v1.321H12.821Zm5.286,3.964H12.821V23.893h5.286Zm13.875,0H19.429V23.893H31.982Zm0-2.643H19.429V21.25H31.982Zm0-2.643H19.429V18.607H31.982ZM19.429,17.286V15.964H31.982v1.321Z" transform="translate(-8.196 -4.071)"/>
</svg>
